<svg width="24" height="24" viewBox="0 0 24 24" fill="none" xmlns="http://www.w3.org/2000/svg">
<g id="Icon">
<g id="Union">
<path d="M12.001 15C13.6578 15 15.001 13.6569 15.001 12C15.001 10.3431 13.6578 9 12.001 9C10.3441 9 9.00098 10.3431 9.00098 12C9.00098 13.6569 10.3441 15 12.001 15Z" fill="#4C4C4D"/>
<path fill-rule="evenodd" clip-rule="evenodd" d="M1.32439 11.4467C2.81164 6.97571 7.02889 3.75 12.0015 3.75C16.9718 3.75 21.1874 6.97271 22.6765 11.4405C22.7969 11.8015 22.797 12.1922 22.6769 12.5533C21.1896 17.0243 16.9723 20.25 11.9997 20.25C7.02945 20.25 2.81381 17.0273 1.32472 12.5595C1.20437 12.1985 1.20426 11.8078 1.32439 11.4467ZM17.251 12C17.251 14.8995 14.9005 17.25 12.001 17.25C9.10148 17.25 6.75098 14.8995 6.75098 12C6.75098 9.1005 9.10148 6.75 12.001 6.75C14.9005 6.75 17.251 9.1005 17.251 12Z" fill="#4C4C4D"/>
</g>
</g>
</svg>
